<?xml version="1.0" encoding="UTF-8"?>
<svg id="Layer_1" xmlns="http://www.w3.org/2000/svg" version="1.1" viewBox="0 0 727.74 287.08">
  <!-- Generator: Adobe Illustrator 29.0.1, SVG Export Plug-In . SVG Version: 2.1.0 Build 192)  -->
  <style>
    .logo-path {
      fill: white; /* Default color is white */
    }
  </style>
  <path class="logo-path" d="M716.1,220.6v4H1.6c-1.06,0-1.9-2.84-1.5-4h716Z"/>
  <g>
    <path class="logo-path" d="M716.1,112.6h-126.5c-24.53-21.26-50.43-40.88-78.19-57.81-16.55-10.09-34.39-18.13-50.62-28.38-4.75-3.01-12.84-6.62-8.7-13.32l22-7.48c-19.51.87-50.5.58-65.04,15.44-9.7,9.92-11.94,23.54-17.77,35.23-1.52,3.03-2.84,6.86-5.39,2.03l-17.79-40.71h-53v20h11v57h-11v15c-3.74.18-7.18-1.01-9.5-4-1.03,1.39.19,2.54-2.49,2l-.02-4-2,4c-1.84-3.76-7.16-4.22-6.48-.01l-1.03,1c-3.09-1.73-6.91-.4-9.79-1-.33-.07-2.66-3.98-5.59-3.1.38-5.59-2.95-21.69-8.11-9.4,1.99-.57,4.09-2.28,5.35.73,1.6,3.85,1.33,12.64-4.34,11.77,1.15-4.21,2.31-7.6-1.99-9.99l-.95,6.56-13.05.45,2.03,1.49c.41,1.04-.71,3.5-1.54,3.5h-17.5l1.67-2.83,11.32-1.16h-9c1.71-31.76-20.51-33.67-19.99-1.01l-18.56-.94-1.48-8.04-21.95,1.97c.39-4.18,6.3-9.27,10.36-7.9,1.28.43,1.33,2.36,1.83,2.68,3.75,2.31,13.96-4.79,11.8-6.76-5.21-.53-10.31,1.81-15.54.99-1.44-.22-1.6.61-1.49-1.52.2-3.87,2.6-7.8,6.59-8.42,3.95-.61,11.19,2.1,10.43-4.05-7.25-.93-13.51,3.14-20.51,3.97-11.54,1.37-23.94.16-35.47,2.01l1.64-3.89,38.69-1.26c3.84-5.28,4.2-8.16,11.98-6.8.65-.21,1.68-2.27,1.68-2.54v-14.5c-9.88-1.83-7.28,18.96-13.69,20.81l-36.86,3.24c-5.82-.09-5.13-8.7-5.44-13.05h2.98l1.01,10c6.11-.87,34.16-.87,37.09-4.41l3.73-12.12c-.33-1.99-4.73-1.54-6.3-1.47-12.29.58-24.67,3.61-36.89,4.93l-1.44-2.19,2.82-13.73,1.51,6.01c7.1-2.31,48.79-5.95,51.55-9.7,1.74-2.35,6.07-29.09,4.92-30.32-9.65,1.82-19.48,3.4-29.09,5.46-2.16.47-2.07,1.09-2.9,1.54,2.35-.25,4.71.2,7.26-.24,5.2-.9,16.57-5.57,21.21-4.79,5.1.85-.13,10.16.52,14.02-2.28-1.09-1.78-4.99-3.52-6.96-4.7-5.33-23.18,2.44-29.97.97-1.63-1.44,2.41-1,3.53-1.49.65-.29.78-1.41.97-1.51-1.36.15-2.67-.22-4.22.24-2.47.73-5.93,5.29-8.77.77,5.16-2.18,10.84-2.78,16.21-4.28,10.65-2.97,25.7-9.43,36.46-4.91,2.45,1.03,21.48,11.9,22.65,13.1,1.71,1.78,1.66,8.51,1.68,11.08l1-9,5.8,1.2c3.22,20.74,3.27,41.78,3.2,62.81l-5,.49,24.41,4.53c3.59-7.31,5.89.86,10.58-1.03v13.01s27.53-.03,27.53-.03l5.46,2.02,2.01-7.97-58.99-18.54c-.39-2.11.79-1.63,2.29-1.29,1.07.24,13.68,5.42,13.71,3.3l-15.85-7.16-1.15-53.33c1.55-.29,2.31.14,3.54.94,8.04,5.26,16.44,15.68,24.53,21.47.5.35,2.75,1.77,2.91,1.58.72-2.61-1.4-1.89-3.01-3.44-9.01-8.68-17.96-17.4-27.23-25.8-5.38-2.72-11.76,2.03-16.99,1.06-6.99-1.3-17.77-12.86-27.24-13.28-6.98-.31-40.37,7.98-47.51,10.97-9.93,4.16-7.87,12.18-12.45,15.59-2.15,1.59-8.44-1.65-10.55,3.41-1.45,3.5,6.36-1.15,6.98-.51.6.63-3.57,13.88-3.5,16.93.18,7.43-.43,6.06-1.43,12.63-.94,6.27,1.8,9.06,1.91,11.94.07,1.89-2.94,4.79-1.96,7.5l4.38-.96,2.6,2.95.56-3.06,34.21-1.72,2.21,1.28c-2.83,10.04-4.52,9.81-14.48,10.5-5.26.37-19.73,2.03-20.5-3.98l-1.63,2.01h-7.37s-.98-6.01-.98-6.01l-1,11.98,1.55-2.02c2.56,1.38,7.9-.34,9.43,2.54,1.04,1.95-1.7,1.44-2.48,1.5-2.59.19-5.13.21-7.5-1.01-3.3,19.01,19.11,2.41,23.99,15.99L.1,112.6v4h714.5c1.06,0,1.9-2.84,1.5-4ZM176.1,56.61c3.56,3.01-14.59,7.18-15.99,3.47-.79-3.72,13.14-2.45,15.99-3.47ZM281.11,89.6l18.98,4.01c.26,1.71-2.37,1.06-3.47.97-4.68-.37-9.82-2.29-14.51-2.98l-1,5.99v-7.99ZM216.6,110.6h-34.5c-.27-4.27,1.91-4.72,5.44-5.06,5.08-.49,22.59-.79,27.07.05,1.94.37,2.35,1.35,3.03,3l-1.04,2.01ZM231.8,108.49c-9.08-2.33-4.02-26.02,4.04-18.61,4.47,4.11,2.41,20.27-4.04,18.61ZM422.1,72.1c-.71,7.01-4.65,18.96-7.23,25.77-1.08,2.81-5.59,14.73-8.27,14.73h-40l-1.5-1.5v-16.5h-9v-35.5l2-1.01,17.11,36.39,26.23.17,18.65-43.57,2.01,1.02c-.47,6.45.64,13.67,0,20ZM445.1,11.61c-1.95,2.36-6.31,5.21-7.53,8.07-1.24,2.91,2.8,5.64-5.47,4.92-1.83-8.61,5.4-12.53,13-12.99ZM440.05,40.89l-6.95-13.28c2.08.36,6.2-.71,7.79.21.71.41,9.52,12.57,8.21,13.78l-7.16.47-1.89-1.18ZM457.53,64.67c-.9-.59-12.29-15.78-12.89-17.11-.61-1.35-.69-2.51-.55-3.95,13.27-3.59,17.65,12.07,27.06,18.44l.95,3.54c-4.07-.57-11.26,1.26-14.57-.92ZM463.08,71.11c-.21-2.11.14-1.3,1.51-1.5,3.5-.51,11.03-.82,14.07.93,1.62.94,17.98,19.2,19.49,21.51.81,1.23,1.22,1.99.95,3.55h-20l-16.02-24.49ZM489.6,112.6c-.85,0-6.81-7.78-4.5-10h22l5,10h-22.5Z"/>
    <path class="logo-path" d="M224.09,21.6l-1.12,16.37-10.86,4.63c-2.24-6.77.91-13.79.1-20.89l7.87-1.09,1.03,10.98,2.98-10Z"/>
    <path class="logo-path" d="M215.22,94.22c-.6,1.71.29,6.98-.12,7.38h-8l1.11-9.89,9.88-.1c.19,1.7-2.25.85-2.87,2.61Z"/>
    <path class="logo-path" d="M228.1,42.59l-6.99-1c.08-1.75,2.48-1.16,3.48-3,1.19-2.19,1.26-7.34,1.52-9.99l1.99,13.99Z"/>
    <path class="logo-path" d="M226.1,67.61c.22,1.8-2.24.97-3.37.87-3.6-.31-8.73-1-12.2-1.86-1.68-.42-2.92,1-2.43-2.02l17.99,3Z"/>
  </g>
  <g>
    <path class="logo-path" d="M108.1,144.6v46h7v16h-39v-16h6v-29c-1.56.24-1.89,1.86-2.48,3.02-1.84,3.59-9.18,24.64-10.48,25.52-5.65.33-13.09,1.16-18.6.52-1.85-.22-2.13-.11-3.34-1.66-5.64-7.28-7.23-21.03-14.1-27.4v29h7v14.5l-1.5,1.5H.1v-16h9v-44.5c-2.13-2.61-5.98-1.22-9-1.5v-15h43l14.51,33.01c1.73.22,1.98-1.27,2.55-2.45,4.56-9.37,7.88-20.85,11.94-30.56h43v15h-7Z"/>
    <polygon class="logo-path" points="384.1 175.6 384.1 205.1 382.6 206.6 307.1 206.6 307.1 190.6 315.1 190.6 315.1 144.6 307.1 144.6 307.1 129.6 383.1 129.6 383.1 158.6 365.1 158.6 365.1 144.6 342.1 144.6 342.1 159.6 359.1 159.6 359.1 174.6 342.1 174.6 342.1 190.6 366.1 190.6 366.1 175.6 384.1 175.6"/>
    <path class="logo-path" d="M572.88,127.88c-24.8,2.99-35.4,23.77-32.67,47.11,5.12,43.86,77.86,44.38,81.93-1.85,2.81-31.97-18.34-48.99-49.26-45.26ZM594.08,174.08c-2.1,22.18-24.25,20.86-26.02,1.06-.89-9.94-1.21-29.79,12.7-30.19,14.12-.41,14.27,19.18,13.32,29.13Z"/>
    <polygon class="logo-path" points="203.1 175.6 203.1 206.6 127.6 206.6 126.1 205.1 126.1 190.6 134.1 190.6 134.1 144.6 126.1 144.6 126.1 129.6 202.1 129.6 202.1 158.6 184.1 158.6 184.85 146.06 183.6 144.6 161.1 144.6 161.1 159.6 178.1 159.6 178.1 174.6 161.1 174.6 161.1 190.6 185.1 190.6 185.1 175.6 203.1 175.6"/>
    <path class="logo-path" d="M300.1,190.6v16h-38v-16h5l-12.5-41.98-14.4,40.6c-.66,2.71,4.35.91,5.9,1.38v14.5l-1.5,1.5h-35.5v-16l6.11-.62,23.36-59.41c2.12-2.18,28.62-.73,33.55-.49l21.87,59.93,6.11.59Z"/>
    <path class="logo-path" d="M716.1,129.6v15c-1.28.5-3.69.19-4.72.76-5.38,3.03-18.5,29.88-24.03,35.98l.19,8.32,8.56.94v16h-44.5l-1.5-1.5v-14.5l8.56-.94-.02-9.11c-7.43-8.41-14.1-26.12-21.53-33.45-1.93-1.9-3.42-2.86-6.01-1.5v-16h38v15l-5.99,1.49c3.33,4.2,6.01,12.91,9.55,16.45.83.83.91,1.42,2.43,1.06l8.9-16.65-1.55-2.24-4.34-.61v-14.5h38Z"/>
    <path class="logo-path" d="M471.1,129.6v29h-17v-14c-3.29.37-7.62-1.24-10,1.5v44.5h9v16h-44v-16h9v-46l-9.53.95-.47,13.05h-17v-29h80Z"/>
    <path class="logo-path" d="M517.1,144.6v46h8v16h-43v-16h9v-44.5c-2.13-2.61-5.98-1.22-9-1.5v-15h43v15h-8Z"/>
  </g>
  <g>
    <path class="logo-path" d="M180.1,241.6v38h4.01s-.01,5-.01,5h-15v-5.01s4,.01,4,.01v-32l-13.49,29.01c-1.41,1.69-6.33,1.5-8.02,0-3.03-2.68-8.85-21.45-12.25-26.72-.63-.99.12-1.78-2.24-1.29v31h5.01s-.01,5-.01,5h-16v-5.01s5,.01,5,.01v-38h-5l.94-4.56,12.9-.28,15.66,33.82,14.99-32.99,13.52-1v5.02h-4.01Z"/>
    <path class="logo-path" d="M347.1,243.59c-.69-3.16,2.01-1.77,4.01-1.98v-5.01h-15.01v5.01c1.99.21,4.69-1.18,4,1.98-29.19,1.4-30.37,33.12.01,33.01v3h-4.02c-1.38,8.29,9.68,4.02,15.02,5.01v-5.02h-4.02s0-2.99,0-2.99c29.66-.59,29.7-31.66.01-33.01ZM347.1,248.6c21.41.2,21.2,23.51,0,23v-23ZM340.07,272.6c-9.02-1.31-18.36-3.99-15.76-15.29,1.45-6.3,15.09-11.44,16.4-7.22,1.32,4.23-.45,10.03-.62,14.01-.1,2.58,1.96,5.33-.02,8.5Z"/>
    <path class="logo-path" d="M582.1,279.6h5.01s-.01,5-.01,5h-16v-5.01s4,.01,4,.01v-18h-20.5l-1.5,1.5v16.5h5.01s-.01,5-.01,5h-14.5l-1.5-5h5v-38h-5.01s.01-5,.01-5h16l-.04,4.96-4.83,1.67c.29,4.51-1.6,10.85,1.37,14.37h20.5v-16h-4.01s.01-5,.01-5h16v5.01s-5-.01-5-.01v38Z"/>
    <path class="logo-path" d="M537.11,279.59v5.01h-17.01v-5.01c.61-.59,4.76,1.33,3.97-1.45l-11.1-17.4c-1.72-1.51-6.87,3.93-6.87,4.36v14.5h4.01l-.45,4.06c-.93,1.37-18.91,3.29-15.56-4.06h5v-38l-4.57-.93-.43-4.07h16v5.01s-3.9.08-3.9.08l-.09,16.91,16.98-16.51-2.89-.55-.1-4.94h15l-.05,4.95c-3.97-1.57-17.98,12.59-17.81,14.38,2.73,3.01,13.34,22.49,15.05,23.46,1.23.7,3.36.03,4.82.2Z"/>
    <path class="logo-path" d="M412.75,241.95c-7.97-8.6-25.65-7.36-32.1,2.7-5.4,8.4-5.32,27.54,1.95,34.95,7.01,7.16,22.66,6.85,29.49-.51,7.75-8.34,8.36-28.82.66-37.14ZM394.69,279.51c-15.29-2.06-13.2-35.15-1.88-37.7,14.51-3.27,18.37,6.97,18.35,19.29-.01,10.51-4.6,20-16.47,18.41Z"/>
    <path class="logo-path" d="M309.98,279.01l-13.77-41.82h-9.22l-13.99,42.32-3.91.08v5.01h15.01v-5.01s-5,0-5,0l3.5-8.99h17l3.52,8.49-5.03.52,1.51,4.99h14.5v-5l-4.12-.59ZM284.1,266.6c.51-2.79,5.36-22.67,6.51-23.01,1.93-.56,1.47.92,1.95,2,2.96,6.63,4.29,14.14,6.54,21.01h-15Z"/>
    <path class="logo-path" d="M227.1,272.59v12.01h-36v-5.01s4,.01,4,.01v-38h-4.01s.01-5,.01-5h33.5c2.64.82,1.14,9.53,1.5,12h-4c-.08-2.43.77-5.38-1.5-7h-18.5v16h17v4h-17v18h20l1.1-6.89,3.9-.12Z"/>
    <path class="logo-path" d="M455.38,238.82c-.71-.35-6.42-2.22-6.78-2.22h-22.5l-.57,4.03,4.57.97v38l-3.86.11-.94,3.43,1.3,1.46h16.5v-5.01s-6,.01-6,.01v-15h14.5c9.04,0,15.02-20.17,3.78-25.78ZM437.1,260.6v-19c8.62-.11,17.09-1.78,17.08,9.5-.01,10.98-8.6,9.37-17.08,9.5Z"/>
    <path class="logo-path" d="M268.48,249.48l-3.38.12v-8.01s-11,.01-11,.01v38h6.01s-.01,5-.01,5h-19v-5h6v-38h-11.01s.02,8.01.02,8.01h-5.02v-13.01h37.51c2.16.67,2.53,11.99-.12,12.88Z"/>
    <path class="logo-path" d="M481.1,279.6h4.01s-.01,5-.01,5h-14.5c-2.98,0-1.38-6.32,3.56-5.56v-36.88l-5.05-2.07c-.51-1.05.69-3.49,1.49-3.49h14.5v5.01s-4-.01-4-.01v38Z"/>
  </g>
</svg>